<mxfile host="65bd71144e">
    <diagram id="5gMrNbhCcvMap2-kCo8e" name="Page-1">
        <mxGraphModel dx="1086" dy="740" grid="1" gridSize="5" guides="1" tooltips="1" connect="1" arrows="1" fold="1" page="1" pageScale="1" pageWidth="827" pageHeight="1169" math="0" shadow="0">
            <root>
                <mxCell id="0"/>
                <mxCell id="1" parent="0"/>
                <mxCell id="268" style="edgeStyle=none;html=1;entryX=0.5;entryY=0;entryDx=0;entryDy=0;fontSize=12;" parent="1" edge="1">
                    <mxGeometry relative="1" as="geometry">
                        <mxPoint x="370" y="340" as="sourcePoint"/>
                    </mxGeometry>
                </mxCell>
                <mxCell id="270" style="edgeStyle=none;html=1;fontSize=12;" parent="1" edge="1">
                    <mxGeometry relative="1" as="geometry">
                        <mxPoint x="408.5000000000001" y="410" as="sourcePoint"/>
                    </mxGeometry>
                </mxCell>
                <mxCell id="278" style="edgeStyle=none;html=1;entryX=0;entryY=0.5;entryDx=0;entryDy=0;fontSize=9;" parent="1" edge="1">
                    <mxGeometry relative="1" as="geometry">
                        <mxPoint x="559.5" y="210" as="sourcePoint"/>
                    </mxGeometry>
                </mxCell>
                <mxCell id="302" value="&lt;b&gt;Truck extends Vehicle&lt;br&gt;&lt;/b&gt;" style="text;html=1;align=center;verticalAlign=middle;resizable=0;points=[];autosize=1;strokeColor=none;fillColor=none;" parent="1" vertex="1">
                    <mxGeometry width="145" height="30" as="geometry"/>
                </mxCell>
                <mxCell id="534" style="edgeStyle=none;html=1;entryX=0.5;entryY=0;entryDx=0;entryDy=0;" edge="1" parent="1" source="535">
                    <mxGeometry relative="1" as="geometry">
                        <mxPoint x="70.00000000000006" y="180" as="targetPoint"/>
                    </mxGeometry>
                </mxCell>
                <mxCell id="535" value="Start" style="strokeWidth=2;html=1;shape=mxgraph.flowchart.start_1;whiteSpace=wrap;" vertex="1" parent="1">
                    <mxGeometry x="20" y="80" width="100" height="60" as="geometry"/>
                </mxCell>
                <mxCell id="536" value="Stop" style="strokeWidth=2;html=1;shape=mxgraph.flowchart.start_1;whiteSpace=wrap;" vertex="1" parent="1">
                    <mxGeometry x="505" y="275" width="100" height="60" as="geometry"/>
                </mxCell>
                <mxCell id="537" value="brake" style="text;html=1;align=center;verticalAlign=middle;resizable=0;points=[];autosize=1;strokeColor=none;fillColor=none;" vertex="1" parent="1">
                    <mxGeometry x="126" y="35" width="50" height="30" as="geometry"/>
                </mxCell>
                <mxCell id="538" style="edgeStyle=none;html=1;" edge="1" parent="1" source="539" target="550">
                    <mxGeometry relative="1" as="geometry"/>
                </mxCell>
                <mxCell id="539" value="Get _speed" style="shape=parallelogram;html=1;strokeWidth=2;perimeter=parallelogramPerimeter;whiteSpace=wrap;rounded=1;arcSize=12;size=0.23;fontSize=12;" vertex="1" parent="1">
                    <mxGeometry x="20" y="180" width="100" height="60" as="geometry"/>
                </mxCell>
                <mxCell id="567" style="edgeStyle=none;rounded=0;html=1;entryX=0.5;entryY=1;entryDx=0;entryDy=0;fontSize=11;" edge="1" parent="1" source="541" target="548">
                    <mxGeometry relative="1" as="geometry"/>
                </mxCell>
                <mxCell id="541" value="Get&lt;br style=&quot;font-size: 12px;&quot;&gt;airPressure" style="shape=parallelogram;html=1;strokeWidth=2;perimeter=parallelogramPerimeter;whiteSpace=wrap;rounded=1;arcSize=12;size=0.23;fontSize=12;labelBackgroundColor=default;" vertex="1" parent="1">
                    <mxGeometry x="176" y="380" width="100" height="60" as="geometry"/>
                </mxCell>
                <mxCell id="561" style="edgeStyle=none;html=1;entryX=0;entryY=0.5;entryDx=0;entryDy=0;entryPerimeter=0;fontSize=11;" edge="1" parent="1" source="548" target="555">
                    <mxGeometry relative="1" as="geometry"/>
                </mxCell>
                <mxCell id="548" value="&lt;div style=&quot;&quot;&gt;&lt;font style=&quot;font-size: 11px;&quot;&gt;this._speed = this._speed - (breakPower * breakTime) - (airPressure * breakTime)&lt;/font&gt;&lt;/div&gt;" style="rounded=1;whiteSpace=wrap;html=1;absoluteArcSize=1;arcSize=14;strokeWidth=2;fontSize=8;" vertex="1" parent="1">
                    <mxGeometry x="145" y="275" width="160" height="60" as="geometry"/>
                </mxCell>
                <mxCell id="549" style="edgeStyle=none;html=1;" edge="1" parent="1" source="550" target="552">
                    <mxGeometry relative="1" as="geometry"/>
                </mxCell>
                <mxCell id="550" value="Get&lt;br style=&quot;font-size: 12px;&quot;&gt;brakePower" style="shape=parallelogram;html=1;strokeWidth=2;perimeter=parallelogramPerimeter;whiteSpace=wrap;rounded=1;arcSize=12;size=0.23;fontSize=12;labelBackgroundColor=default;" vertex="1" parent="1">
                    <mxGeometry x="20" y="280" width="100" height="60" as="geometry"/>
                </mxCell>
                <mxCell id="551" style="edgeStyle=none;html=1;" edge="1" parent="1" source="552" target="541">
                    <mxGeometry relative="1" as="geometry"/>
                </mxCell>
                <mxCell id="552" value="Get&lt;br style=&quot;font-size: 12px;&quot;&gt;brakeTime" style="shape=parallelogram;html=1;strokeWidth=2;perimeter=parallelogramPerimeter;whiteSpace=wrap;rounded=1;arcSize=12;size=0.23;fontSize=12;labelBackgroundColor=default;" vertex="1" parent="1">
                    <mxGeometry x="20" y="380" width="100" height="60" as="geometry"/>
                </mxCell>
                <mxCell id="562" style="edgeStyle=none;html=1;fontSize=11;" edge="1" parent="1" source="555" target="557">
                    <mxGeometry relative="1" as="geometry"/>
                </mxCell>
                <mxCell id="564" style="edgeStyle=none;html=1;entryX=0;entryY=0.5;entryDx=0;entryDy=0;entryPerimeter=0;fontSize=11;" edge="1" parent="1" source="555" target="536">
                    <mxGeometry relative="1" as="geometry"/>
                </mxCell>
                <mxCell id="555" value="&lt;font style=&quot;font-size: 11px;&quot;&gt;if &lt;br&gt;(this._speed &amp;lt; 0)&lt;/font&gt;" style="strokeWidth=2;html=1;shape=mxgraph.flowchart.decision;whiteSpace=wrap;fontSize=8;" vertex="1" parent="1">
                    <mxGeometry x="350" y="260" width="105" height="90" as="geometry"/>
                </mxCell>
                <mxCell id="566" style="edgeStyle=none;html=1;entryX=0.5;entryY=1;entryDx=0;entryDy=0;entryPerimeter=0;fontSize=11;rounded=0;" edge="1" parent="1" source="557" target="536">
                    <mxGeometry relative="1" as="geometry">
                        <Array as="points">
                            <mxPoint x="555" y="410"/>
                        </Array>
                    </mxGeometry>
                </mxCell>
                <mxCell id="557" value="&lt;div style=&quot;font-size: 12px;&quot;&gt;this._speed = 0&lt;/div&gt;" style="rounded=1;whiteSpace=wrap;html=1;absoluteArcSize=1;arcSize=14;strokeWidth=2;fontSize=12;" vertex="1" parent="1">
                    <mxGeometry x="355" y="380" width="100" height="60" as="geometry"/>
                </mxCell>
                <mxCell id="563" value="Yes" style="text;html=1;align=center;verticalAlign=middle;resizable=0;points=[];autosize=1;strokeColor=none;fillColor=none;fontSize=11;" vertex="1" parent="1">
                    <mxGeometry x="360" y="345" width="40" height="30" as="geometry"/>
                </mxCell>
                <mxCell id="565" value="No" style="text;html=1;align=center;verticalAlign=middle;resizable=0;points=[];autosize=1;strokeColor=none;fillColor=none;fontSize=11;" vertex="1" parent="1">
                    <mxGeometry x="448" y="275" width="35" height="30" as="geometry"/>
                </mxCell>
            </root>
        </mxGraphModel>
    </diagram>
</mxfile>